inDegrees=yes
name=ik_lifting_orientations
DataType=double
version=3
OpenSimVersion=4.5-2024-01-10-34fd6af
endheader
time	pelvis_tilt	pelvis_list	pelvis_rotation	pelvis_tx	pelvis_ty	pelvis_tz	hip_flexion_r	hip_adduction_r	hip_rotation_r	knee_angle_r	knee_angle_r_beta	ankle_angle_r	subtalar_angle_r	mtp_angle_r	hip_flexion_l	hip_adduction_l	hip_rotation_l	knee_angle_l	knee_angle_l_beta	ankle_angle_l	subtalar_angle_l	mtp_angle_l	lumbar_extension	lumbar_bending	lumbar_rotation	arm_flex_r	arm_add_r	arm_rot_r	elbow_flex_r	pro_sup_r	wrist_flex_r	wrist_dev_r	arm_flex_l	arm_add_l	arm_rot_l	elbow_flex_l	pro_sup_l	wrist_flex_l	wrist_dev_l
0.58	0.1523630523187126	-35.55713293301415	-91.51956232589562	0	0.9399999998679526	0	44.05366616720072	-16.56632458411044	0	59.50062486737077	1.038481810929634	-8.877945929471352	0	0	44.05366616720072	-16.56632458411044	0	59.50062486737077	1.038481810929634	-8.877945929471352	0	0	-67.09271389704192	-1.993750953497717	-2.65320129435322	34.87950840187253	-5.923153507832858	-2.419704543162067	0.02377721844230104	4.868635630309467	0	0	0	-7.336083487924791	0	85.21748244302057	4.868635630309467	0	0
0.59	-0.1297350136700649	-35.85536351614372	-91.60368315336355	0	0.9399999998679526	0	44.05387881501806	-16.56112936252091	0	59.50071431619707	1.038483372106165	-8.874014266934157	0	0	44.05387881501806	-16.56112936252091	0	59.50071431619707	1.038483372106165	-8.874014266934157	0	0	-67.76545282138299	-1.799057209181172	-2.476899019174398	35.55488968917948	-5.993899195268922	-2.313126901631022	0.02400026051518766	4.867867966657262	0	0	0	-7.336979210928614	0	85.21823642834595	4.867867966657262	0	0
0.6	-0.4413522515109224	-36.18853511936181	-91.90705213516354	0	0.9399999998679526	0	44.05413750991077	-16.55473845380918	0	59.50082211845875	1.038485253610573	-8.869170018819409	0	0	44.05413750991077	-16.55473845380918	0	59.50082211845875	1.038485253610573	-8.869170018819409	0	0	-68.34659061756528	-1.909840315051193	-2.114102429877208	35.89946039154858	-6.010687103378036	-2.55198132912833	0.02402297747158396	4.866937335408168	0	0	0	-7.3380618194686	0	85.21915047568271	4.866937335408168	0	0
0.61	-0.5438940225994503	-36.49099469057435	-92.06333835206891	0	0.9399999998679526	0	44.05445456114056	-16.54694747994957	0	59.50095473316242	1.038487568173788	-8.863270169429599	0	0	44.05445456114056	-16.54694747994957	0	59.50095473316242	1.038487568173788	-8.863270169429599	0	0	-68.7761949533254	-2.132751795917603	-1.895380429998803	36.27521517925263	-5.95003056745719	-2.94468237700133	0.02529926299114766	4.865795087753446	0	0	0	-7.339392261536535	0	85.2202723693639	4.865795087753446	0	0
0.62	-0.4543193500037089	-36.80188324403479	-91.97348690254645	0	0.9399999998679526	0	44.05472413954855	-16.54028309633425	0	59.50106688219515	1.038489525543662	-8.858219507761508	0	0	44.05472413954855	-16.54028309633425	0	59.50106688219515	1.038489525543662	-8.858219507761508	0	0	-69.1994924359139	-2.285378839544608	-1.786018203772756	36.67615787184987	-6.010682842153181	-3.698590511514873	0.02747842490190671	4.864825796515179	0	0	0	-7.340519308547229	0	85.22122438751751	4.864825796515179	0	0
0.63	-0.1781747565690201	-37.12722829178119	-91.628521410788	0	0.9399999998679526	0	44.05502457374865	-16.53288198923366	0	59.50119213282413	1.038491711579528	-8.852614571025295	0	0	44.05502457374865	-16.53288198923366	0	59.50119213282413	1.038491711579528	-8.852614571025295	0	0	-69.6495516977313	-2.398304779920705	-1.894765876779648	37.30331425865488	-5.883466631027518	-3.883448224631128	0.02993565098064788	4.863744617049139	0	0	0	-7.341777360062163	0	85.2222863005517	4.863744617049139	0	0
0.64	0.2072839402532611	-37.63030576691664	-91.13365528870604	0	0.9399999998679526	0	44.05530912975032	-16.52590438849439	0	59.50131112407248	1.038493788368593	-8.847335042128137	0	0	44.05530912975032	-16.52590438849439	0	59.50131112407248	1.038493788368593	-8.847335042128137	0	0	-70.16569079459786	-2.261358725572908	-2.225803246800942	37.68904293478376	-5.799413804422655	-3.703019415251515	0.03189839244719075	4.862719331000512	0	0	0	-7.342971587779586	0	85.22329331688555	4.862719331000512	0	0
0.65	0.06586116463450364	-37.8129937927251	-91.23198218491133	0	0.9399999998679526	0	44.05558055820111	-16.51932664837703	0	59.50142561413636	1.038495786597168	-8.842368026217663	0	0	44.05558055820111	-16.51932664837703	0	59.50142561413636	1.038495786597168	-8.842368026217663	0	0	-70.34180497098396	-2.237177957246291	-2.125936572814646	37.88147514318285	-5.787711917024821	-3.653515608654328	0.03282417624094153	4.8617380507976	0	0	0	-7.344117813506863	0	85.22425711336328	4.8617380507976	0	0
